<?xml version="1.0" standalone="no"?><!DOCTYPE svg PUBLIC "-//W3C//DTD SVG 1.1//EN" "http://www.w3.org/Graphics/SVG/1.1/DTD/svg11.dtd"><svg t="1514447713343" class="icon" style="" viewBox="0 0 1024 1024" version="1.1" xmlns="http://www.w3.org/2000/svg" p-id="2992" xmlns:xlink="http://www.w3.org/1999/xlink" width="200" height="200"><defs><style type="text/css"></style></defs><path d="M582.979571 169.308469l-33.204893 228.785366-13.014373 73.829196H765.545672L438.970069 822.459675 505.501486 632.474166l29.556004-86.721939H248.98456l333.995011-376.443758m51.570971-140.238983c-7.419408 0-16.663262 3.648889-22.136596 9.243853L129.057728 586.2549c-7.419408 9.243853-1.824445 23.961041 12.892743 23.96104h304.439007L326.462645 955.279249c-7.419408 22.136596 9.243853 40.624302 27.73156 40.624302 7.419408 0 16.663262-1.824445 22.136596-9.243853l518.507186-553.536524c7.419408-9.243853 1.824445-25.785485-9.243853-25.785485H612.413946l51.6926-341.41442c3.770519-22.136596-12.892743-36.853783-29.556004-36.853783z" fill="#FFC000" p-id="2993"></path></svg>