<?xml version="1.0" standalone="no"?><!DOCTYPE svg PUBLIC "-//W3C//DTD SVG 1.1//EN" "http://www.w3.org/Graphics/SVG/1.1/DTD/svg11.dtd"><svg t="1514447877068" class="icon" style="" viewBox="0 0 1030 1024" version="1.1" xmlns="http://www.w3.org/2000/svg" p-id="8078" xmlns:xlink="http://www.w3.org/1999/xlink" width="201.171875" height="200"><defs><style type="text/css"></style></defs><path d="M510.434891 0c-280.722741 0-510.404984 229.682243-510.404984 510.404984s229.682243 510.404984 510.404984 510.404985 510.404984-229.682243 510.404984-510.404985-226.492212-510.404984-510.404984-510.404984z m0 972.959502c-255.202492 0-462.554517-207.352025-462.554517-462.554518S255.232399 47.850467 510.434891 47.850467s462.554517 207.352025 462.554517 462.554517c3.190031 255.202492-204.161994 462.554517-462.554517 462.554518z m255.202492-462.554518h-232.872274V207.352025c0-12.760125-9.570093-22.330218-22.330218-22.330218-12.760125 0-22.330218 9.570093-22.330218 22.330218v325.383177c0 12.760125 9.570093 22.330218 22.330218 22.330219h255.202492c12.760125 0 22.330218-9.570093 22.330218-22.330219 3.190031-12.760125-9.570093-22.330218-22.330218-22.330218z" fill="#7cba59" p-id="8079"></path></svg>