<?xml version="1.0" standalone="no"?><!DOCTYPE svg PUBLIC "-//W3C//DTD SVG 1.1//EN" "http://www.w3.org/Graphics/SVG/1.1/DTD/svg11.dtd"><svg t="1514448072326" class="icon" style="" viewBox="0 0 1024 1024" version="1.1" xmlns="http://www.w3.org/2000/svg" p-id="8785" xmlns:xlink="http://www.w3.org/1999/xlink" width="200" height="200"><defs><style type="text/css"></style></defs><path d="M895.955202 383.980801H639.968002V127.9936C639.968002 57.341133 582.626869 0 511.974401 0H127.9936C57.341133 0 0 57.341133 0 127.9936v383.980801c0 70.652467 57.341133 127.9936 127.9936 127.993601h255.987201v255.9872c0 70.652467 57.341133 127.9936 127.9936 127.993601h383.980801c70.652467 0 127.9936-57.341133 127.993601-127.993601V511.974401c0-70.652467-57.341133-127.9936-127.993601-127.9936zM127.9936 575.971201c-35.326234 0-63.9968-28.670566-63.9968-63.9968V127.9936c0-35.326234 28.670566-63.9968 63.9968-63.9968h383.980801c35.326234 0 63.9968 28.670566 63.9968 63.9968v255.987201H511.974401c-70.652467 0-127.9936 57.341133-127.9936 127.9936v63.9968H127.9936z m447.977601-127.9936V511.974401c0 35.326234-28.670566 63.9968-63.9968 63.9968h-63.9968V511.974401c0-35.326234 28.670566-63.9968 63.9968-63.9968h63.9968z m383.980801 447.977601c0 35.326234-28.670566 63.9968-63.9968 63.9968H511.974401c-35.326234 0-63.9968-28.670566-63.9968-63.9968V639.968002H511.974401c70.652467 0 127.9936-57.341133 127.993601-127.993601v-63.9968h255.9872c35.326234 0 63.9968 28.670566 63.9968 63.9968v383.980801zM992.0016 127.9936c-17.714314 0-31.947203 14.335283-31.947203 31.947203v114.784661L694.544473 9.420329c-12.492175-12.492175-32.766362-12.492175-45.258537 0-12.492175 12.492175-12.492175 32.766362 0 45.258537l319.984001 319.984001c20.171791 20.171791 54.576471 5.836508 54.576471-22.629269V160.043198C1023.948803 142.328884 1009.613519 127.9936 992.0016 127.9936zM54.576471 649.388331C34.507075 629.216539 0 643.449428 0 672.017599v191.990401C0 881.619919 14.335283 895.955202 31.947203 895.955202s31.947203-14.335283 31.947202-31.947202V749.223339l265.40753 265.407529c12.492175 12.492175 32.766362 12.492175 45.258537 0 12.492175-12.492175 12.492175-32.766362 0-45.258537L54.576471 649.388331z" p-id="8786" fill="#a686ba"></path></svg>