<?xml version="1.0" standalone="no"?><!DOCTYPE svg PUBLIC "-//W3C//DTD SVG 1.1//EN" "http://www.w3.org/Graphics/SVG/1.1/DTD/svg11.dtd"><svg t="1514447782487" class="icon" style="" viewBox="0 0 1024 1024" version="1.1" xmlns="http://www.w3.org/2000/svg" p-id="4493" xmlns:xlink="http://www.w3.org/1999/xlink" width="200" height="200"><defs><style type="text/css"></style></defs><path d="M1002.35776 205.44512s-54.53312-45.31712-110.26944-69.16608C831.44192 107.20768 745.728 108.544 745.728 108.544s-60.40064-4.45952-122.30144 24.72448-107.58656 68.83328-107.58656 68.83328-63.15008-48.25088-118.95808-73.50784S260.54656 108.544 260.54656 108.544s-76.63616 3.8912-125.94176 26.05568c-49.31072 22.15936-94.59712 74.8544-94.59712 74.8544V889.088s69.7088-60.24704 111.27296-77.184 106.59328-16.37376 106.59328-16.37376 77.88544 9.33376 124.30336 28.06272c46.42304 18.7392 133.66272 88.21248 133.66272 88.21248s55.60832-59.25888 100.23936-81.53088c75.68896-39.09632 150.71232-33.41312 150.71232-33.41312s46.1056 2.01216 110.2592 26.06592c58.33216 21.87264 126.48448 67.49696 126.48448 67.49696l-1.1776-684.9792zM492.1088 836.96128s-119.3472-94.35136-234.24-92.22144c-108.2624 2.00192-149.69856 29.39904-177.7664 57.472 1.00352-33.08032-0.50688-568.05888-0.50688-568.05888s41.60512-74.81856 181.94944-80.83456c119.29088-10.02496 222.208 74.17856 228.5568 90.21952 3.01568 21.04832 2.00704 593.42336 2.00704 593.42336z m466.14016-22.05184c-28.06784-28.06784-103.24992-70.1696-211.51744-72.17664-114.8928-2.12992-205.34272 95.22688-205.34272 95.22688s-0.9984-572.36992 2.01216-593.41824c10.01984-16.04096 88.21248-96.2304 228.5568-90.21952 121.64096 5.29408 187.86304 78.97088 187.86304 78.97088s-1.45408 548.80768-1.57184 581.61664z" fill="#dd6572" p-id="4494"></path></svg>