<?xml version="1.0" standalone="no"?><!DOCTYPE svg PUBLIC "-//W3C//DTD SVG 1.1//EN" "http://www.w3.org/Graphics/SVG/1.1/DTD/svg11.dtd"><svg t="1514449082269" class="icon" style="" viewBox="0 0 1024 1024" version="1.1" xmlns="http://www.w3.org/2000/svg" p-id="9532" xmlns:xlink="http://www.w3.org/1999/xlink" width="200" height="200"><defs><style type="text/css"></style></defs><path d="M943.750827 253.586773l-11.93984-101.963093-216.946347 27.112107 8.674987-157.29152-101.963094-3.25632-9.755306 172.48768-331.95008 40.133973 11.93984 101.973333 148.594346-17.358506-167.04512 540.224853 97.636694 31.450453 181.149013-585.777493 54.248107-6.510933-17.368747 328.685226-128.006827 21.695147 18.428587 100.87936 104.169813-17.34656-10.857813 203.92448 103.04512 5.430613 11.938133-226.72384 87.8592-15.182506-16.264533-100.881067-66.16576 10.85952 16.264533-323.269973 234.315094-29.294934zM312.424107 126.67392l-73.7792-72.686933L4.328107 290.476373l73.757013 71.59296 47.737173-48.817493 15.2064 622.667093 101.963094-3.268266-16.28672-720.2816 85.71904-85.695147z m707.247786 654.11584l-214.784-433.902933-91.103573 46.644906 215.86432 432.810667 90.023253-45.55264z" fill="#1296db" p-id="9533"></path></svg>