<?xml version="1.0" standalone="no"?><!DOCTYPE svg PUBLIC "-//W3C//DTD SVG 1.1//EN" "http://www.w3.org/Graphics/SVG/1.1/DTD/svg11.dtd"><svg t="1514467574365" class="icon" style="" viewBox="0 0 1024 1024" version="1.1" xmlns="http://www.w3.org/2000/svg" p-id="5095" xmlns:xlink="http://www.w3.org/1999/xlink" width="200" height="200"><defs><style type="text/css"></style></defs><path d="M507.779127 369.34368c-12.46247 6.859773-22.971058 10.383822-27.067147 25.47697-6.417207 23.640792 14.213901 48.3162 39.009367 42.98893C560.537465 429.039476 557.759658 367.687589 507.779127 369.34368z" p-id="5096" fill="#1296db"></path><path d="M679.738377 438.605257c37.328558-7.256434 34.704942-64.302719-9.552834-62.892629-12.115244 5.839282-21.466804 9.386872-25.475793 23.087585C638.320792 420.633076 657.502967 442.928515 679.738377 438.605257z" p-id="5097" fill="#1296db"></path><path d="M505.390918 462.488519c-13.946714 6.07822-24.443532 9.991869-28.659679 25.475793-6.467819 23.751434 13.946714 47.666475 38.212513 42.990107C555.07719 523.222461 553.002073 461.114916 505.390918 462.488519z" p-id="5098" fill="#1296db"></path><path d="M673.370605 464.08105c-12.348297 6.250068-21.696327 10.87347-25.47697 25.47697-5.947569 22.972235 11.031193 49.402605 35.028627 44.581461C720.120169 526.666472 718.587666 462.743936 673.370605 464.08105z" p-id="5099" fill="#1296db"></path><path d="M511.999982 0c-262.624071 0-475.523029 212.898958-475.523029 475.523029s212.898958 475.523029 475.523029 475.523029 475.523029-212.898958 475.523029-475.523029S774.624053 0 511.999982 0zM455.235009 211.713681c11.145365-1.857365 22.293085-3.715906 33.437273-5.573271 100.023444-1.81146 172.359442 18.187579 227.68843 60.50442 12.773208 9.769409 48.180841 42.40865 30.25221 70.058431-4.797604 7.397679-18.904394 10.274358-30.25221 6.367771-28.832703-9.922424-49.207217-23.377136-91.553485-23.883262 0-0.264833 0-0.529667 0-0.795677 0.795677-0.795677 1.592531-1.592531 2.388208-2.387031 3.183886-5.307261 6.368948-10.616876 9.552834-15.922959 15.02488-40.83142-52.891344-23.415978-78.018734-27.862825-12.205876-2.919052-24.415283-5.839282-36.621158-8.757157-38.699806-6.277139-62.772571 16.469104-81.202619 31.843564C368.336707 279.755848 416.603471 226.489029 455.235009 211.713681zM585.001007 311.228645c0 0.264833 0 0.529667 0 0.795677-30.95137-0.198919-62.505383 0.36135-89.959776 5.572094-10.784015 2.046868-20.649941 8.092131-31.844741 6.370125-1.592531-1.326521-3.183886-2.654219-4.776417-3.98074-6.686748-25.196835 11.685625-31.864751 28.660856-39.009367C531.129191 280.070116 568.231758 285.005433 585.001007 311.228645zM323.081981 231.616203c8.491146-2.122198 16.984647-4.245573 25.475793-6.368948 29.364724-0.818041 35.181642 21.066612 27.067147 46.972024-8.86309 28.304214-57.340544 76.168431-95.533047 47.766524C237.290093 288.155185 298.676114 242.123614 323.081981 231.616203zM712.379972 691.76948c-50.002894 29.999147-144.469546 66.320161-229.280961 48.562201-30.620623-6.410145-59.129641-16.41143-81.999474-31.047887-6.852711-4.385641-19.172759-19.275161-29.456533-15.922959-3.714729 4.245573-7.430636 8.492323-11.145365 12.739074-46.980263 0.873362-124.105625-38.038311-117.028101-82.796328 4.245573-19.900168 8.492323-39.807398 12.737897-59.708743 3.380451-11.57263 9.98363-25.444013 7.164625-42.19443-6.247713-37.130816-30.262803-53.705853-41.397575-82.795151-10.752235-28.094701 8.846612-63.530583 21.495053-75.630525 11.40549-10.912312 24.748384-9.984807 41.397575-16.718636 68.460015-0.905142 77.958705 45.154678 66.873368 111.456007-0.795677 19.635335-1.591354 39.276554-2.387031 58.911889-0.532021 15.123751-1.062865 30.253387-1.592531 45.377138 5.892248 29.704888 40.125198 59.672255 64.48516 71.649785 31.124395 15.303838 80.778886 8.05682 120.213163 14.331605 11.410199 0.264833 22.822751 0.529667 34.23295 0.7945 5.836927 1.639613 13.923173 6.049971 25.475793 3.98074 12.749667-2.283452 22.102405-10.323793 31.844741-12.737897 5.307261 0.530844 10.615699 1.061688 15.921782 1.591354 11.145365-2.122198 22.291908-4.245573 33.437273-6.368948 6.367771 2.653042 12.737897 5.307261 19.106845 7.96148 21.112516 4.222032 66.14596-36.147989 77.22188-18.309991C782.969247 649.988191 726.648017 683.208888 712.379972 691.76948zM754.573225 608.177475c-15.56514 12.235302-49.013006 22.535554-74.834848 15.921782-0.264833-0.795677-0.529667-1.592531-0.795677-2.388208-8.014446-15.399178 22.650904-41.756572 23.883262-59.708743-6.866835-13.575947-28.826818-11.436093-40.601898-3.98074-20.265049 12.833237-34.546042 44.201278-39.805044 71.650962-12.848538 5.433204-40.359429 19.027983-56.52368 6.368948-13.041572-10.213152-3.965438-56.669633-19.902522-70.854108-31.684664-28.197103-54.884068 23.98331-56.524857 51.747263-19.731852 3.041464-43.303199 12.495427-62.095775 0-45.553694-30.286344-45.604306-186.691047-15.922959-237.241264 23.820879-40.568941 61.83918-37.756999 115.436746-46.970846 12.73672-1.060511 25.47697-2.123375 38.212513-3.183886 116.181811-1.770264 206.294602 34.198816 235.64991 117.028101C817.979042 495.187789 780.656369 587.673487 754.573225 608.177475z" p-id="5100" fill="#1296db"></path></svg>