<?xml version="1.0" standalone="no"?><!DOCTYPE svg PUBLIC "-//W3C//DTD SVG 1.1//EN" "http://www.w3.org/Graphics/SVG/1.1/DTD/svg11.dtd"><svg t="1514473510690" class="icon" style="" viewBox="0 0 1024 1024" version="1.1" xmlns="http://www.w3.org/2000/svg" p-id="10399" xmlns:xlink="http://www.w3.org/1999/xlink" width="200" height="200"><defs><style type="text/css"></style></defs><path d="M792.494137 223.561929l-265.614739 0c-11.032275 0-3.704372 25.738223-3.704372 36.84213 0 11.09265 0.039909 4.007271 11.143816 4.007271l259.42066 0L792.494137 223.561929zM174.482068 499.712639l0 61.963299 295.260972 0 0-61.963299c0-48.400385-39.200853-87.599191-87.600215-87.599191l-120.069753 0C213.672688 412.112424 174.482068 451.312254 174.482068 499.712639zM546.523827 615.845728l-416.798148 0L129.72568 140.829586l747.33252 0-0.061398 286.313174c26.892514 6.983048 37.469417 21.437263 59.037664 42.307614 0.566912 0.576122 1.073449 1.143034 1.649571 1.721203L937.684036 149.999442c-0.070608-40.586411-32.985285-73.581929-73.511321-73.581929l-732.828163 0c-40.587434 0-64.605478 32.92491-64.605478 73.521554l0 468.06277c0 40.596644 24.018044 61.042322 64.605478 61.042322l410.58258 0L546.523827 615.845728zM426.10001 277.953777c0-57.711457-46.811189-104.523669-104.523669-104.523669-57.722714 0-104.533903 46.811189-104.533903 104.523669 0 57.731923 46.811189 104.532879 104.533903 104.532879C379.288821 382.486657 426.10001 335.746076 426.10001 277.953777zM924.658358 534.217535c-45.293624-43.836435-108.784721-46.244277-150.838554-5.526882l-29.624744 28.674092c-11.406806 11.032275-11.468204 29.048622-0.183172 40.150482 11.356664 11.164282 29.807916 11.22568 41.16458 0.132007l29.624744-28.674092c21.751418-21.062733 50.29248-12.368714 68.885972 5.647633 9.888218 9.575086 15.343468 22.31833 15.343468 35.839289 0 13.501515-5.455251 26.254993-15.343468 35.830079l-93.431019 90.324258c-42.692377 41.355938-62.732826 21.95301-71.30507 13.633522-11.417039-11.032275-29.868291-10.961667-41.16458 0.130983-11.345407 11.103907-11.285032 29.11923 0.132007 40.151505 19.594287 18.966999 41.983225 28.420311 65.465056 28.420311 28.724234 0 59.047897-14.078661 87.904137-42.054857l93.369621-90.323235c20.992124-20.303439 32.600521-47.389357 32.600521-76.183176C957.259903 581.594612 945.650483 554.570092 924.658358 534.217535zM700.68199 863.354069c-11.345407-11.042508-29.806893-11.103907-41.223931-0.070608l-23.78473 23.025436c-20.607361 19.919698-54.169791 19.919698-74.777152 0-9.898451-9.574062-15.353702-22.32754-15.353702-35.839289 0-13.573147 5.455251-26.264203 15.353702-35.839289l87.529606-84.675603c18.13812-17.570185 52.256207-43.38004 77.124619-19.351763 11.417039 11.103907 29.878524 10.98111 41.235188-0.12075 11.34643-11.093674 11.224657-29.108997-0.132007-40.151505-42.307614-40.910799-104.785636-33.360839-159.209207 19.281155l-87.529606 84.685836c-20.992124 20.354604-32.540146 47.378101-32.540146 76.172943s11.548022 45.486006 32.600521 65.779211c21.629645 20.940959 49.989581 31.335714 78.399659 31.335714 28.420311 0 56.831413-10.394755 78.400683-31.397112l23.78473-23.016226C711.978279 882.128687 712.048887 874.44672 700.68199 863.354069zM792.494137 325.696176l-265.614739 0c-11.032275 0-3.704372 25.738223-3.704372 36.84213 0 11.09265 0.039909 3.997038 11.143816 3.997038l259.42066 0L792.494137 325.696176zM523.174003 468.862996c0 11.102883 0.039909 4.007271 11.143816 4.007271l259.42066 0-1.244342-40.839168-265.614739 0C515.8461 432.031099 523.174003 457.770345 523.174003 468.862996z" p-id="10400" fill="#1296db"></path></svg>