<?xml version="1.0" standalone="no"?><!DOCTYPE svg PUBLIC "-//W3C//DTD SVG 1.1//EN" "http://www.w3.org/Graphics/SVG/1.1/DTD/svg11.dtd"><svg t="1514458261014" class="icon" style="" viewBox="0 0 1024 1024" version="1.1" xmlns="http://www.w3.org/2000/svg" p-id="12080" xmlns:xlink="http://www.w3.org/1999/xlink" width="200" height="200"><defs><style type="text/css"></style></defs><path d="M836.104609 308.7499l-30.450523 30.42494-121.588219-121.630175 30.378891-30.352285c33.598212-33.56956 88.062662-33.56956 121.660874 0C869.701798 220.756823 869.701798 275.184433 836.104609 308.7499zM744.824673 399.955134 592.782861 551.868009l-211.961506 92.121094 90.300632-213.681684 152.10935-151.98246L744.824673 399.955134zM424.441828 250.040776 293.569152 250.040776c-24.088628 0-43.62252 19.570731-43.62252 43.710524l0 437.101149c0 24.142863 19.533892 43.710524 43.62252 43.710524l436.248735 0c24.094768 0 43.629683-19.566638 43.629683-43.710524L773.447571 556.011376c0-24.13877 19.533892-43.710524 43.62252-43.710524 24.094768 0 43.629683 19.570731 43.629683 43.710524l0 218.550575c0 48.282656-39.065737 87.422072-87.252203 87.422072L249.946632 861.984023c-48.183396 0-87.250156-39.140439-87.250156-87.422072L162.696476 250.040776c0-48.279586 39.065737-87.417979 87.250156-87.417979l174.495196 0c24.097838 0 43.629683 19.566638 43.629683 43.710524C468.071512 230.474139 448.539666 250.040776 424.441828 250.040776z" p-id="12081" fill="#e98f36"></path></svg>