<?xml version="1.0" standalone="no"?><!DOCTYPE svg PUBLIC "-//W3C//DTD SVG 1.1//EN" "http://www.w3.org/Graphics/SVG/1.1/DTD/svg11.dtd"><svg t="1514458191986" class="icon" style="" viewBox="0 0 1024 1024" version="1.1" xmlns="http://www.w3.org/2000/svg" p-id="10153" xmlns:xlink="http://www.w3.org/1999/xlink" width="200" height="200"><defs><style type="text/css"></style></defs><path d="M943.221831 288.256792C903.495657 190.501413 837.071275 115.155401 746.265081 63.584025c-126.254057-71.709974-259.55557-83.260362-396.300088-32.127697-138.478305 51.774938-233.299583 148.315964-280.139898 288.306945-41.410825 123.755158-29.667404 245.053533 30.085058 361.350601 51.248485 99.745373 130.072599 169.819831 232.99775 212.343228 34.205433 14.13001 70.664086 22.82 107.961556 34.587989 0 30.386891 0 61.668752 0 95.958418 9.160289-4.362544 15.93399-7.300154 22.447973-10.73263 58.804846-30.96248 117.704453-61.756495 176.295208-93.122589 48.237171-25.827804 97.776437-49.746338 143.73582-79.196141 71.952142-46.113809 126.225979-109.755007 157.876358-189.302117C989.061884 531.422112 992.596142 409.75522 943.221831 288.256792zM516.808608 754.129453c-31.348546-0.126349-58.257334-27.273796-57.720352-58.229257 0.603667-35.205694 24.076469-59.405003 57.436067-59.20495 35.623347 0.214091 59.106679 24.311618 59.468177 61.026479C576.290824 728.326217 549.080202 754.259312 516.808608 754.129453zM690.411884 382.541088c-5.629542 29.179558-21.574061 52.65587-42.625178 72.819036-14.730166 14.112461-30.004335 27.673901-45.250425 41.235341-33.233249 29.569133-38.360905 40.098201-43.590342 92.262715-26.431471 0-53.041936 0-81.821389 0C470.638644 541.744109 478.223083 499.989334 514.422019 466.882434 534.665908 448.365313 554.881718 429.820114 575.273014 411.464438c19.956094-17.9661 32.141736-38.30826 23.339435-66.508614-8.191615-26.238438-26.750853-40.045556-52.54005-45.76635C495.294212 287.926881 462.619004 305.047146 438.911052 359.485938c-12.585746 28.902292-44.06766 37.774787-66.252407 31.853941-18.008216-4.801255-25.280293-14.582759-23.283279-33.33854 6.387635-60.00165 40.10873-100.79126 94.628246-121.596699 53.582428-20.440431 109.070617-17.987158 162.498619 3.72378C665.693142 264.180323 701.383173 325.663062 690.411884 382.541088z" p-id="10154" fill="#36ab60"></path></svg>