<?xml version="1.0" standalone="no"?><!DOCTYPE svg PUBLIC "-//W3C//DTD SVG 1.1//EN" "http://www.w3.org/Graphics/SVG/1.1/DTD/svg11.dtd"><svg t="1514458015887" class="icon" style="" viewBox="0 0 1024 1024" version="1.1" xmlns="http://www.w3.org/2000/svg" p-id="7106" xmlns:xlink="http://www.w3.org/1999/xlink" width="200" height="200"><defs><style type="text/css"></style></defs><path d="M812.334229 837.049121c-165.159574 165.159574-432.939363 165.159574-598.098937 0-165.159574-165.16469-165.159574-432.925037 0-598.098937l33.231869-33.236985c18.349927-18.345834 48.100508-18.345834 66.454528 0 18.345834 18.364253 18.345834 48.109718 0 66.473971l-33.231869 33.208333c-128.454604 128.46893-128.454604 336.738347 0 465.198068 128.45972 128.450511 336.734254 128.450511 465.193974 0 128.450511-128.45972 128.450511-336.729138 0-465.198068l-33.231869-33.208333c-18.355043-18.364253-18.355043-48.109718 0-66.473971 18.349927-18.345834 48.104601-18.345834 66.454528 0l33.227776 33.236985C977.497896 404.124084 977.497896 671.88443 812.334229 837.049121zM513.286296 444.028932c-25.953092 0-46.991244-21.047362-46.991244-47.009663L466.295052 115.091248c0-25.967418 21.038152-46.99636 46.991244-46.99636 25.953092 0 46.991244 21.028942 46.991244 46.99636l0 281.928021C560.27754 422.98157 539.239388 444.028932 513.286296 444.028932z" p-id="7107" fill="#c73421"></path></svg>